<?xml version="1.0" encoding="UTF-8" standalone="no"?>
<!-- Created with Inkscape (http://www.inkscape.org/) -->

<svg
   xmlns:dc="http://purl.org/dc/elements/1.1/"
   xmlns:cc="http://creativecommons.org/ns#"
   xmlns:rdf="http://www.w3.org/1999/02/22-rdf-syntax-ns#"
   xmlns:svg="http://www.w3.org/2000/svg"
   xmlns="http://www.w3.org/2000/svg"
   xmlns:xlink="http://www.w3.org/1999/xlink"
   xmlns:sodipodi="http://sodipodi.sourceforge.net/DTD/sodipodi-0.dtd"
   xmlns:inkscape="http://www.inkscape.org/namespaces/inkscape"
   width="39.536217mm"
   height="39.536221mm"
   viewBox="0 0 140.08896 140.08897"
   id="svg4672"
   version="1.1"
   inkscape:version="0.92.3 (2405546, 2018-03-11)"
   sodipodi:docname="epigenie.svg">
  <defs
     id="defs4674">
    <marker
       inkscape:stockid="DotS"
       orient="auto"
       refY="0.0"
       refX="0.0"
       id="DotS"
       style="overflow:visible"
       inkscape:isstock="true">
      <path
         id="path1517"
         d="M -2.5,-1.0 C -2.5,1.7600000 -4.7400000,4.0 -7.5,4.0 C -10.260000,4.0 -12.5,1.7600000 -12.5,-1.0 C -12.5,-3.7600000 -10.260000,-6.0 -7.5,-6.0 C -4.7400000,-6.0 -2.5,-3.7600000 -2.5,-1.0 z "
         style="fill-rule:evenodd;stroke:#000000;stroke-width:1pt;stroke-opacity:1;fill:#000000;fill-opacity:1"
         transform="scale(0.2) translate(7.4, 1)" />
    </marker>
    <marker
       inkscape:stockid="DotM"
       orient="auto"
       refY="0.0"
       refX="0.0"
       id="DotM"
       style="overflow:visible"
       inkscape:isstock="true">
      <path
         id="path1514"
         d="M -2.5,-1.0 C -2.5,1.7600000 -4.7400000,4.0 -7.5,4.0 C -10.260000,4.0 -12.5,1.7600000 -12.5,-1.0 C -12.5,-3.7600000 -10.260000,-6.0 -7.5,-6.0 C -4.7400000,-6.0 -2.5,-3.7600000 -2.5,-1.0 z "
         style="fill-rule:evenodd;stroke:#000000;stroke-width:1pt;stroke-opacity:1;fill:#000000;fill-opacity:1"
         transform="scale(0.4) translate(7.4, 1)" />
    </marker>
    <marker
       inkscape:stockid="DotL"
       orient="auto"
       refY="0.0"
       refX="0.0"
       id="DotL"
       style="overflow:visible"
       inkscape:isstock="true">
      <path
         id="path1511"
         d="M -2.5,-1.0 C -2.5,1.7600000 -4.7400000,4.0 -7.5,4.0 C -10.260000,4.0 -12.5,1.7600000 -12.5,-1.0 C -12.5,-3.7600000 -10.260000,-6.0 -7.5,-6.0 C -4.7400000,-6.0 -2.5,-3.7600000 -2.5,-1.0 z "
         style="fill-rule:evenodd;stroke:#000000;stroke-width:1pt;stroke-opacity:1;fill:#000000;fill-opacity:1"
         transform="scale(0.8) translate(7.4, 1)" />
    </marker>
  </defs>
  <sodipodi:namedview
     id="base"
     pagecolor="#ffffff"
     bordercolor="#666666"
     borderopacity="1.0"
     inkscape:pageopacity="0.0"
     inkscape:pageshadow="2"
     inkscape:zoom="5.6"
     inkscape:cx="75.194812"
     inkscape:cy="54.400079"
     inkscape:document-units="px"
     inkscape:current-layer="layer1"
     showgrid="false"
     fit-margin-top="0.5"
     fit-margin-left="0.5"
     fit-margin-bottom="0.5"
     fit-margin-right="0.5"
     inkscape:window-width="1920"
     inkscape:window-height="1018"
     inkscape:window-x="0"
     inkscape:window-y="34"
     inkscape:window-maximized="1" />
  <metadata
     id="metadata4677">
    <rdf:RDF>
      <cc:Work
         rdf:about="">
        <dc:format>image/svg+xml</dc:format>
        <dc:type
           rdf:resource="http://purl.org/dc/dcmitype/StillImage" />
        <dc:title />
      </cc:Work>
    </rdf:RDF>
  </metadata>
  <g
     inkscape:label="Layer 1"
     inkscape:groupmode="layer"
     id="layer1"
     transform="translate(-14.452634,-12.762348)">
    <use
       id="use79769-8-2"
       xlink:href="#home"
       transform="matrix(0.12554633,0,0,0.12554633,-86.752433,154.44143)"
       x="0"
       y="0"
       width="100%"
       height="100%" />
    <rect
       style="fill:none;fill-opacity:1;stroke:#000000;stroke-width:5.62499996;stroke-miterlimit:4;stroke-dasharray:none;stroke-opacity:1"
       id="rect1398"
       width="98.016365"
       height="94.583412"
       x="34.340012"
       y="35.302708"
       ry="30.422953" />
    <path
       style="fill:none;stroke:#000000;stroke-width:3.75;stroke-linecap:butt;stroke-linejoin:miter;stroke-miterlimit:4;stroke-dasharray:none;stroke-dashoffset:0;stroke-opacity:1"
       d="m 132.79995,104.39856 c 0,0 -7.73611,-18.804922 -19.45543,-18.779011 C 101.6252,85.64546 99.473937,103.61576 89.648803,103.251 81.603822,102.95233 78.127949,85.561211 67.947085,85.77911 55.757026,86.04001 57.454678,103.2038 46.677976,103.34601 37.445343,103.46784 34.9398,94.848781 34.9398,94.848781"
       id="path1870"
       inkscape:connector-curvature="0"
       sodipodi:nodetypes="cssssc" />
    <path
       style="fill:none;stroke:#000000;stroke-width:3.75;stroke-linecap:butt;stroke-linejoin:miter;stroke-miterlimit:4;stroke-dasharray:7.49999995, 3.74999998;stroke-dashoffset:0;stroke-opacity:1"
       d="m 34.9398,94.848781 c 0,0 3.218972,-9.243278 11.084147,-9.186246 11.684966,0.08473 10.922096,17.761235 20.440545,17.673165 11.718838,-0.10843 14.309062,-17.642617 23.867462,-17.741412 10.036346,-0.103735 12.533206,17.724652 22.712286,17.435072 12.18792,-0.34673 13.56433,-18.097092 20.25681,-17.832637"
       id="path1870-7"
       inkscape:connector-curvature="0"
       sodipodi:nodetypes="cssssc" />
    <path
       style="fill:none;stroke:#000000;stroke-width:2.8125;stroke-linecap:butt;stroke-linejoin:miter;stroke-miterlimit:4;stroke-dasharray:none;stroke-opacity:1"
       d="m 68.358884,84.748638 c 3.348214,-12.220981 3.348214,-12.220981 3.348214,-12.220981 v 0"
       id="path4549"
       inkscape:connector-curvature="0" />
    <text
       xml:space="preserve"
       style="font-style:normal;font-weight:normal;font-size:15px;line-height:1.25;font-family:sans-serif;letter-spacing:0px;word-spacing:0px;fill:#000000;fill-opacity:1;stroke:none;stroke-width:0.9375"
       x="41.533157"
       y="98.137413"
       id="text4553"
       transform="rotate(-22.722656)"><tspan
         sodipodi:role="line"
         id="tspan4551"
         x="41.533157"
         y="98.137413"
         style="font-style:normal;font-variant:normal;font-weight:bold;font-stretch:normal;font-size:17.5px;font-family:Liberation;-inkscape-font-specification:'Liberation Bold';stroke-width:0.9375">CH<tspan
   style="font-size:64.99999762%;baseline-shift:sub"
   id="tspan4557">3</tspan></tspan></text>
  </g>
</svg>
